HIERARCHY
ROOT ROOT
{
	OFFSET 0.000000 56.020000 -5.659234
	CHANNELS 6 Xposition Yposition Zposition Xrotation Yrotation Zrotation 
	JOINT C_spine0001_bind_JNT
	{
		OFFSET 0.000000 1.618999 0.000000
		CHANNELS 3 Xrotation Yrotation Zrotation
		JOINT C_spine0002_bind_JNT
		{
			OFFSET 0.000000 4.942001 0.000001
			CHANNELS 3 Xrotation Yrotation Zrotation
			JOINT C_spine0003_bind_JNT
			{
				OFFSET 0.000000 4.942001 -0.000000
				CHANNELS 3 Xrotation Yrotation Zrotation
				JOINT C_neck0001_bind_JNT
				{
					OFFSET 0.000000 17.026009 -0.000000
					CHANNELS 3 Xrotation Yrotation Zrotation
					JOINT C_neck0002_bind_JNT
					{
						OFFSET 0.000000 3.249985 0.000000
						CHANNELS 3 Xrotation Yrotation Zrotation
						JOINT C_head_bind_JNT
						{
							OFFSET 0.000000 5.278008 0.000000
							CHANNELS 3 Xrotation Yrotation Zrotation
							End Site
							{
								OFFSET 0.000000 0.000000 0.000000
							}
						}
					}
				}
				JOINT L_clavicle_bind_JNT
				{
					OFFSET 4.590000 12.067001 0.834000
					CHANNELS 3 Xrotation Yrotation Zrotation
					JOINT L_armUpper0001_bind_JNT
					{
						OFFSET 7.812635 0.512001 -3.452945
						CHANNELS 3 Xrotation Yrotation Zrotation
						JOINT L_armLower0001_bind_JNT
						{
							OFFSET 15.265892 -6.552116 -0.058157
							CHANNELS 3 Xrotation Yrotation Zrotation
							JOINT L_hand0001_bind_JNT
							{
								OFFSET 14.747667 -6.369995 5.049225
								CHANNELS 3 Xrotation Yrotation Zrotation
								End Site
								{
									OFFSET 0.000000 0.000000 0.000000
								}
							}
						}
					}
				}
				JOINT R_clavicle_bind_JNT
				{
					OFFSET -4.590000 12.067001 0.834000
					CHANNELS 3 Xrotation Yrotation Zrotation
					JOINT R_armUpper0001_bind_JNT
					{
						OFFSET -7.812635 0.512001 -3.452945
						CHANNELS 3 Xrotation Yrotation Zrotation
						JOINT R_armLower0001_bind_JNT
						{
							OFFSET -15.265890 -6.552124 -0.058160
							CHANNELS 3 Xrotation Yrotation Zrotation
							JOINT R_hand0001_bind_JNT
							{
								OFFSET -14.746784 -6.369629 5.048937
								CHANNELS 3 Xrotation Yrotation Zrotation
								End Site
								{
									OFFSET 0.000000 0.000000 0.000000
								}
							}
						}
					}
				}
			}
		}
	}
	JOINT C_pelvis0001_bind_JNT
	{
		OFFSET -0.000000 0.000000 0.000000
		CHANNELS 3 Xrotation Yrotation Zrotation
		JOINT L_legUpper0001_bind_JNT
		{
			OFFSET 6.599999 -6.027000 0.539000
			CHANNELS 3 Xrotation Yrotation Zrotation
			JOINT L_legLower0001_bind_JNT
			{
				OFFSET -0.140713 -19.187443 0.040261
				CHANNELS 3 Xrotation Yrotation Zrotation
				JOINT L_foot0001_bind_JNT
				{
					OFFSET -0.132215 -18.028637 -1.138370
					CHANNELS 3 Xrotation Yrotation Zrotation
					JOINT L_foot0002_bind_JNT
					{
						OFFSET 0.007014 -4.693133 9.886524
						CHANNELS 3 Xrotation Yrotation Zrotation
						End Site
						{
							OFFSET 0.000000 0.000000 0.000000
						}
					}
				}
			}
		}
		JOINT R_legUpper0001_bind_JNT
		{
			OFFSET -6.599999 -6.027000 0.539000
			CHANNELS 3 Xrotation Yrotation Zrotation
			JOINT R_legLower0001_bind_JNT
			{
				OFFSET 0.140710 -19.187164 0.040550
				CHANNELS 3 Xrotation Yrotation Zrotation
				JOINT R_foot0001_bind_JNT
				{
					OFFSET 0.132215 -18.028633 -1.138362
					CHANNELS 3 Xrotation Yrotation Zrotation
					JOINT R_foot0002_bind_JNT
					{
						OFFSET -0.007014 -4.693128 9.886505
						CHANNELS 3 Xrotation Yrotation Zrotation
						End Site
						{
							OFFSET 0.000000 0.000000 0.000000
						}
					}
				}
			}
		}
	}
}
MOTION
Frames: 10
Frame Time: 0.033333
0.000000 46.777889 0.000000 0.011519 -7.820839 -0.002086 0.304677 9.734546 -1.442902 15.229490 -1.850796 2.320153 7.393520 -1.378356 2.139115 1.824965 -0.023844 1.198044 0.022939 7.285523 -0.971849 5.570329 -0.520150 -1.508897 -1.060419 13.407656 -4.004373 -29.036987 4.998856 -38.230286 -79.436629 -5.425764 -13.519224 -9.465149 -20.222948 -10.253131 0.779496 -12.691933 0.951143 -27.439731 -4.612279 37.663895 -78.813991 9.782724 9.519091 -0.631469 18.385693 28.289804 2.466925 9.749839 -1.721946 -25.729677 -1.301423 3.359511 46.856190 0.552189 -1.066938 -11.083881 4.585807 -4.344891 -12.490641 0.374761 -0.564606 -16.358335 -1.790205 2.878228 40.204067 -9.687951 9.034372 -13.664337 -5.391698 -1.549841 -11.792118 -0.375745 -1.020384
0.447560 46.393505 -0.351765 0.005053 -7.199191 -0.034422 -0.754636 9.029225 -1.505444 16.030907 -1.828800 2.692587 7.678059 -1.723355 2.137209 1.107438 0.037194 0.677967 -0.051206 7.328473 -0.418081 6.223707 0.088726 -1.515185 -0.606691 14.656844 -4.909803 -29.712044 2.741040 -37.276760 -78.991775 -5.204416 -14.343158 -10.232127 -18.846411 -7.799167 0.839268 -13.446228 1.086304 -28.728449 -3.317040 37.299294 -78.573771 10.267042 9.588793 -1.323199 16.289366 29.176849 1.682733 9.137090 -1.614153 -25.723553 -1.650887 2.159546 48.050434 0.807078 -0.946164 -11.322168 4.440373 -3.820512 -13.295102 0.087261 -0.199666 -16.880960 -1.067862 2.615562 41.744629 -11.280704 9.305106 -14.774913 -4.141059 -0.910127 -11.605762 -0.318912 -1.443507
0.140829 46.186199 -0.409184 0.009062 -7.752526 -0.020870 -0.983645 9.625554 -1.283504 16.071314 -2.023206 2.774257 7.715025 -1.750791 2.114637 1.261920 -0.043336 0.737090 -0.021550 7.573993 -0.664717 6.099769 -0.190836 -1.140214 -1.129697 14.757593 -4.290526 -29.301734 2.717123 -38.323814 -78.949934 -4.711098 -13.991449 -9.814896 -18.670601 -7.790296 0.287797 -13.403494 1.111035 -28.156939 -3.406414 37.724991 -77.704051 10.412563 8.522695 -1.288922 16.074741 29.530136 1.582528 9.739833 -1.444301 -26.634893 -1.160522 1.971156 49.628986 -0.288388 -0.276890 -11.679458 4.951451 -4.011902 -13.311028 0.134078 -0.141903 -17.637077 -1.191310 3.026018 43.415646 -10.976476 10.178235 -15.925411 -4.668936 -1.808522 -11.706438 0.058499 -1.915953
-0.019605 45.992588 -0.670866 0.003972 -8.056614 -0.035093 -1.083019 9.721891 -1.184014 16.222765 -1.874510 2.539946 7.497898 -1.603115 2.135261 1.445589 -0.250416 0.472887 0.032872 7.612230 -0.310486 6.062716 -0.169602 -0.940481 -1.171163 14.564828 -3.950492 -28.875875 2.776602 -38.339897 -78.794572 -4.811115 -14.077204 -9.885429 -18.603086 -7.812408 0.128333 -13.688157 1.018473 -28.028312 -3.465292 37.941879 -77.332788 9.985090 8.319150 -1.379270 16.634111 29.743748 1.542274 9.960922 -1.346703 -26.664272 -1.233568 2.074152 49.921585 -0.809263 0.034981 -12.502438 5.378594 -4.384307 -12.767014 0.195646 0.023903 -18.386168 -1.178683 3.147604 43.748867 -10.851752 10.144951 -16.215363 -4.843105 -2.008597 -10.978468 0.073751 -2.023880
-0.055218 45.931446 -1.060934 0.010104 -8.435141 -0.030503 -1.256778 10.150078 -1.093707 16.475115 -1.909319 2.695631 7.711202 -1.637708 2.018331 1.646459 -0.193422 0.650171 -0.099846 7.632121 -0.245675 6.330118 -0.188471 -1.279508 -1.334486 14.402126 -3.799955 -28.606776 2.947650 -38.812767 -78.850489 -4.480237 -14.008738 -9.859140 -18.992548 -7.587505 -0.601008 -13.543088 0.643168 -27.723082 -3.818259 37.952618 -77.313704 9.998757 8.347093 -1.385059 16.683256 29.719334 1.424702 10.495733 -1.284522 -26.319693 -1.074691 1.933188 50.038109 -1.859601 0.769912 -13.474743 5.752308 -4.470085 -12.101979 0.221288 0.076510 -19.564880 -1.168125 3.030678 43.826504 -11.323475 10.213351 -15.975195 -4.322470 -2.566894 -10.117748 0.084746 -1.912646
-0.071430 45.882225 -1.564340 0.010520 -8.874554 -0.020329 -1.317404 10.623226 -1.129443 16.672211 -1.823089 2.631900 7.777295 -1.672113 2.234579 1.718315 -0.213128 0.427908 -0.114504 7.679049 0.056143 6.409847 -0.396209 -1.317367 -1.195336 14.207222 -3.858080 -28.789197 3.203168 -38.771782 -78.952100 -4.383455 -14.022917 -10.018132 -19.113523 -7.653301 -0.510840 -13.480560 0.491793 -27.803783 -3.859919 38.052837 -77.760558 10.173998 8.564261 -1.416231 16.527847 29.537285 1.371552 10.943779 -1.268748 -26.221840 -1.177531 1.715058 49.530991 -2.368976 1.325422 -14.356587 5.692143 -4.698637 -10.712678 0.388273 0.139740 -20.195486 -1.030010 3.125641 43.642017 -11.322868 9.898549 -16.099157 -4.219131 -2.988906 -9.006957 0.202663 -1.595241
-0.091152 45.720226 -2.213319 0.006678 -9.100178 -0.028127 -1.492161 10.702946 -1.017409 17.107363 -1.704715 2.669261 7.922819 -1.458265 2.179833 1.635126 -0.354680 0.432139 0.051845 7.920776 0.320576 6.812464 -0.519882 -1.773662 -1.286759 14.127671 -3.759780 -28.704987 3.169164 -39.186611 -79.279571 -4.204870 -13.972399 -9.975860 -19.547567 -7.526818 -0.550790 -13.613999 0.630150 -28.012323 -3.663888 37.772896 -78.236008 10.228067 8.872708 -1.349145 16.392172 29.697496 1.119753 11.053441 -1.028579 -26.299437 -1.122871 1.384759 48.920918 -2.630922 1.652345 -14.358860 5.528404 -4.521271 -9.897673 0.129000 0.068170 -20.782719 -0.876588 3.317110 43.444096 -11.155543 9.431326 -16.268213 -4.004503 -3.414164 -7.980346 -0.006424 -1.623304
-0.059153 45.653561 -2.819864 0.010166 -9.863350 -0.027839 -1.573945 11.454394 -0.968223 17.185421 -1.660300 2.802015 8.258097 -1.459363 2.223872 1.519741 -0.319861 0.436185 0.074351 8.011557 0.322442 7.039092 -0.910996 -1.902911 -1.374758 14.233732 -3.888854 -28.470390 3.423456 -39.112480 -79.482704 -4.471205 -14.330528 -9.790428 -19.698765 -7.248314 -0.562691 -13.598077 0.615645 -28.406432 -3.656493 37.559414 -78.520680 10.089551 9.166356 -1.194873 16.336170 29.770638 1.126565 11.735067 -0.925840 -26.570101 -1.175313 1.184031 48.520000 -2.638264 1.756554 -13.965902 5.164386 -4.494231 -9.544752 0.218178 0.005768 -21.515863 -0.798813 3.213987 43.424168 -10.917127 9.332921 -16.584162 -3.944721 -3.933733 -6.999849 0.085201 -1.331044
0.022582 45.597336 -3.394411 0.013025 -10.436118 -0.028277 -1.697980 11.767550 -0.870949 17.383896 -1.464980 2.820976 8.334854 -1.340816 2.223583 1.458177 -0.362518 0.400969 0.177227 8.065656 0.356275 7.414715 -1.023904 -2.041099 -1.123182 14.256481 -4.019687 -28.295974 3.951267 -39.145096 -79.940960 -4.627943 -14.653868 -9.678343 -19.895451 -7.215030 -0.469576 -13.845361 0.608189 -28.441556 -3.418638 37.392948 -78.966504 10.254540 9.491253 -1.254565 16.185118 29.847006 1.036466 12.046550 -0.839187 -27.045162 -0.953755 1.012278 47.652519 -2.785580 1.574027 -13.324528 4.786556 -4.205987 -8.840320 0.010127 0.054479 -22.317966 -0.473675 3.188375 43.409863 -10.592587 9.150326 -16.468510 -3.839428 -3.936111 -6.370697 -0.058876 -1.485906
0.153634 45.543175 -3.806154 0.008371 -10.644656 -0.022073 -1.673452 11.910708 -0.713594 17.514837 -1.425842 2.776449 8.375118 -1.280426 2.171541 1.489677 -0.259697 0.551821 0.093721 7.944804 0.388192 7.830761 -1.033201 -2.396580 -1.017902 14.315926 -4.185531 -28.161911 4.234867 -39.090851 -80.036356 -4.739043 -14.917457 -9.895340 -20.211319 -7.356467 -0.315700 -13.912732 0.744744 -28.853029 -3.276109 37.234074 -79.426268 10.337725 9.785995 -1.334744 16.250525 29.603863 0.926567 12.121509 -0.729182 -27.554907 -0.934643 0.814480 47.072170 -2.853348 1.647500 -12.562380 4.510246 -4.042274 -8.475936 -0.021710 -0.007001 -22.809568 -0.271709 2.968799 43.798550 -10.209295 9.131135 -16.458157 -3.653540 -4.066673 -6.171983 0.139634 -1.265451
